<?xml version="1.0" encoding="UTF-8"?>
<!DOCTYPE svg PUBLIC "-//W3C//DTD SVG 1.1//EN"
    "http://www.w3.org/Graphics/SVG/1.1/DTD/svg11.dtd"><svg font-size="1" viewBox="0.0 0.0 400.0 400.0" stroke="rgb(0,0,0)" xmlns="http://www.w3.org/2000/svg" width="400.0000" stroke-opacity="1" height="400.0000" version="1.1" xmlns:xlink="http://www.w3.org/1999/xlink"><defs></defs><g stroke-linejoin="miter" fill-opacity="0.0" fill="rgb(0,0,0)" stroke="rgb(0,0,0)" stroke-linecap="butt" stroke-miterlimit="10.0" stroke-opacity="1.0" stroke-width="6.721344403334448"><path d="M 34.2246,210.6952 l 106.9519,106.9519 "/></g><g stroke-linejoin="miter" fill-opacity="0.0" fill="rgb(0,0,0)" stroke="rgb(0,0,0)" stroke-linecap="butt" stroke-miterlimit="10.0" stroke-opacity="1.0" stroke-width="16.803361008336122"><path d="M 141.1765,103.7433 l -106.9519,106.9519 "/></g><g stroke-linejoin="miter" fill-opacity="0.0" fill="rgb(0,0,0)" stroke="rgb(0,0,0)" stroke-linecap="butt" stroke-miterlimit="10.0" stroke-opacity="1.0" stroke-width="8.40168050416806"><path d="M 355.0802,103.7433 h -213.9037 "/></g><g stroke-linejoin="miter" fill-opacity="0.0" fill="rgb(0,0,0)" stroke="rgb(0,0,0)" stroke-linecap="butt" stroke-miterlimit="10.0" stroke-opacity="1.0" stroke-width="13.442688806668894"><path d="M 355.0802,317.6471 l -213.9037,-213.9037 "/></g><g stroke-linejoin="miter" fill-opacity="0.0" fill="rgb(0,0,0)" stroke="rgb(0,0,0)" stroke-linecap="butt" stroke-miterlimit="10.0" stroke-opacity="1.0" stroke-width="10.082016605001671"><path d="M 355.0802,317.6471 v -213.9037 "/></g><g stroke-linejoin="miter" fill-opacity="0.0" fill="rgb(0,0,0)" stroke="rgb(0,0,0)" stroke-linecap="butt" stroke-miterlimit="10.0" stroke-opacity="1.0" stroke-width="5.041008302500836"><path d="M 141.1765,317.6471 h 213.9037 "/></g><g stroke-linejoin="miter" fill-opacity="1.0" fill="rgb(0,0,255)" stroke="rgb(0,0,0)" stroke-linecap="butt" stroke-miterlimit="10.0" stroke-opacity="1.0" stroke-width="1.3442688806668894"><path d="M 55.6150,210.6952 c 0.0000,-11.8136 -9.5768,-21.3904 -21.3904 -21.3904c -11.8136,-0.0000 -21.3904,9.5768 -21.3904 21.3904c -0.0000,11.8136 9.5768,21.3904 21.3904 21.3904c 11.8136,0.0000 21.3904,-9.5768 21.3904 -21.3904Z"/></g><g stroke-linejoin="miter" fill-opacity="1.0" fill="rgb(0,0,255)" stroke="rgb(0,0,0)" stroke-linecap="butt" stroke-miterlimit="10.0" stroke-opacity="1.0" stroke-width="1.3442688806668894"><path d="M 162.5668,103.7433 c 0.0000,-11.8136 -9.5768,-21.3904 -21.3904 -21.3904c -11.8136,-0.0000 -21.3904,9.5768 -21.3904 21.3904c -0.0000,11.8136 9.5768,21.3904 21.3904 21.3904c 11.8136,0.0000 21.3904,-9.5768 21.3904 -21.3904Z"/></g><g stroke-linejoin="miter" fill-opacity="1.0" fill="rgb(0,0,255)" stroke="rgb(0,0,0)" stroke-linecap="butt" stroke-miterlimit="10.0" stroke-opacity="1.0" stroke-width="1.3442688806668894"><path d="M 376.4706,103.7433 c 0.0000,-11.8136 -9.5768,-21.3904 -21.3904 -21.3904c -11.8136,-0.0000 -21.3904,9.5768 -21.3904 21.3904c -0.0000,11.8136 9.5768,21.3904 21.3904 21.3904c 11.8136,0.0000 21.3904,-9.5768 21.3904 -21.3904Z"/></g><g stroke-linejoin="miter" fill-opacity="1.0" fill="rgb(0,0,255)" stroke="rgb(0,0,0)" stroke-linecap="butt" stroke-miterlimit="10.0" stroke-opacity="1.0" stroke-width="1.3442688806668894"><path d="M 376.4706,317.6471 c 0.0000,-11.8136 -9.5768,-21.3904 -21.3904 -21.3904c -11.8136,-0.0000 -21.3904,9.5768 -21.3904 21.3904c -0.0000,11.8136 9.5768,21.3904 21.3904 21.3904c 11.8136,0.0000 21.3904,-9.5768 21.3904 -21.3904Z"/></g><g stroke-linejoin="miter" fill-opacity="1.0" fill="rgb(0,0,255)" stroke="rgb(0,0,0)" stroke-linecap="butt" stroke-miterlimit="10.0" stroke-opacity="1.0" stroke-width="1.3442688806668894"><path d="M 162.5668,317.6471 c 0.0000,-11.8136 -9.5768,-21.3904 -21.3904 -21.3904c -11.8136,-0.0000 -21.3904,9.5768 -21.3904 21.3904c -0.0000,11.8136 9.5768,21.3904 21.3904 21.3904c 11.8136,0.0000 21.3904,-9.5768 21.3904 -21.3904Z"/></g></svg>